<svg width="259" xmlns="http://www.w3.org/2000/svg" height="201" id="screenshot-60f0f2e3-78f9-8089-8007-3d04cdfdb896" viewBox="-835 885 259 201" style="-webkit-print-color-adjust::exact" xmlns:xlink="http://www.w3.org/1999/xlink" fill="none" version="1.1">
  <g id="shape-60f0f2e3-78f9-8089-8007-3d04cdfdb896" style="fill:#000000" xmlns-xlink="http://www.w3.org/1999/xlink" rx="0" ry="0">
    <g id="shape-60f0f2e3-78f9-8089-8007-3d04cdfdb897" rx="0" ry="0">
      <g id="shape-60f0f2e3-78f9-8089-8007-3d04cdfdb898">
        <g class="fills" id="fills-60f0f2e3-78f9-8089-8007-3d04cdfdb898">
          <path d="M-737.708740234375,1021.1349487304688C-738.5906982421875,1022.5098876953125,-739.3823852539062,1023.7041625976562,-740.1339721679688,1024.91845703125C-745.0145263671875,1032.6865234375,-749.89501953125,1040.4544677734375,-754.7655029296875,1048.232421875C-759.8765869140625,1056.391845703125,-764.987548828125,1064.561279296875,-770.0986328125,1072.7205810546875C-772.6040649414062,1076.7149658203125,-775.1094360351562,1080.6993408203125,-777.6348876953125,1084.68359375C-778.6771240234375,1086.32958984375,-779.3285522460938,1086.299560546875,-780.380859375,1084.6134033203125C-791.5048217773438,1066.899658203125,-802.6287841796875,1049.1859130859375,-813.7528076171875,1031.462158203125C-820.69775390625,1020.3922119140625,-827.6127319335938,1009.3123779296875,-834.5677490234375,998.2625732421875C-835.12890625,997.37939453125,-835.1589965820312,996.717041015625,-834.5677490234375,995.8037109375C-830.76953125,989.8924560546875,-827.04150390625,983.9310302734375,-823.29345703125,977.9896240234375C-822.331298828125,976.464111328125,-821.639892578125,976.4339599609375,-820.667724609375,977.8992919921875C-810.75634765625,992.8631591796875,-800.85498046875,1007.8270263671875,-790.9536743164062,1022.7908935546875C-787.1654663085938,1028.511474609375,-783.3873291015625,1034.2421875,-779.59912109375,1039.962646484375C-779.378662109375,1040.2938232421875,-779.1181030273438,1040.594970703125,-778.75732421875,1041.066650390625C-778.386474609375,1040.60498046875,-778.0758056640625,1040.2938232421875,-777.8453369140625,1039.9326171875C-771.11083984375,1029.6656494140625,-764.3862915039062,1019.3886108398438,-757.6517333984375,1009.1216430664062C-751.4884643554688,999.7178344726562,-745.335205078125,990.303955078125,-739.171875,980.8900146484375C-738.0093994140625,979.1136474609375,-737.4080810546875,979.1036376953125,-736.2455444335938,980.8599853515625C-727.41650390625,994.2080078125,-718.5874633789062,1007.5460205078125,-709.7584228515625,1020.89404296875C-705.1785888671875,1027.8291015625,-700.61865234375,1034.77392578125,-696.048828125,1041.718994140625C-695.7782592773438,1042.1204833984375,-695.4776000976562,1042.5018310546875,-695.03662109375,1043.114013671875C-672.6082763671875,1008.5496215820312,-650.3101806640625,974.1758422851562,-627.9118041992188,939.66162109375C-638.7752685546875,933.880859375,-649.4984130859375,928.1802978515625,-660.5021362304688,922.3292846679688C-659.760498046875,921.8575439453125,-659.3596801757812,921.5263671875,-658.898681640625,921.3156127929688C-649.4683227539062,916.9097900390625,-640.0379028320312,912.513916015625,-630.6075439453125,908.1181030273438C-618.2108764648438,902.3473510742188,-605.8141479492188,896.5966186523438,-593.4174194335938,890.8359375C-589.5189208984375,889.0294189453125,-585.640625,887.1927490234375,-581.7421875,885.376220703125C-580.2890625,884.6937866210938,-580.03857421875,884.8744506835938,-579.958251953125,886.4601440429688C-579.6476440429688,892.5621337890625,-579.296875,898.654052734375,-578.9962768554688,904.7559814453125C-578.7957763671875,908.800537109375,-578.675537109375,912.8450927734375,-578.465087890625,916.879638671875C-578.1744384765625,922.3995361328125,-577.82373046875,927.9193725585938,-577.5130615234375,933.4392700195312C-577.392822265625,935.7073974609375,-577.3327026367188,937.9755859375,-577.232421875,940.2437744140625C-577.06201171875,944.0775146484375,-576.8917236328125,947.911376953125,-576.6912841796875,951.7451171875C-576.4707641601562,955.91015625,-576.1902465820312,960.0650634765625,-576.009765625,964.2301025390625C-575.9295654296875,966.126953125,-576.3204956054688,966.3577880859375,-577.9840698242188,965.4544677734375C-585.670654296875,961.2694091796875,-593.3472290039062,957.05419921875,-601.0337524414062,952.84912109375C-602.777587890625,951.8956909179688,-604.5513916015625,951.0125122070312,-606.2451171875,949.9888305664062C-607.0968627929688,949.4769897460938,-607.52783203125,949.6375732421875,-608.0289306640625,950.430419921875C-610.5342407226562,954.3746337890625,-613.079833984375,958.2886962890625,-615.605224609375,962.222900390625C-618.9324340820312,967.4014892578125,-622.239501953125,972.6002197265625,-625.5567016601562,977.7788696289062C-633.2031860351562,989.7218627929688,-640.8497314453125,1001.65478515625,-648.4962158203125,1013.5977783203125C-652.935791015625,1020.522705078125,-657.3853759765625,1027.4476318359375,-661.81494140625,1034.37255859375C-669.5315551757812,1046.416015625,-677.2482299804688,1058.459228515625,-684.9649047851562,1070.502685546875C-688.00146484375,1075.2396240234375,-691.0280151367188,1079.9666748046875,-694.0845947265625,1084.6937255859375C-695.1368408203125,1086.319580078125,-695.7281494140625,1086.319580078125,-696.7603759765625,1084.6937255859375C-704.6072998046875,1072.48974609375,-712.4341430664062,1060.2657470703125,-720.2711181640625,1048.0517578125C-725.8131103515625,1039.420654296875,-731.3550415039062,1030.7996826171875,-736.89697265625,1022.1686401367188C-737.077392578125,1021.8976440429688,-737.287841796875,1021.646728515625,-737.6886596679688,1021.1349487304688Z" style="fill:#03f8c5;fill-opacity:1">
          </path>
        </g>
      </g>
      <g id="shape-60f0f2e3-78f9-8089-8007-3d04cdfdb899">
        <g class="fills" id="fills-60f0f2e3-78f9-8089-8007-3d04cdfdb899">
          <path d="M-597.446044921875,1085.978271484375C-601.2041625976562,1085.978271484375,-604.9622192382812,1085.9482421875,-608.7203979492188,1085.9984130859375C-609.9129638671875,1086.0084228515625,-610.7047119140625,1085.616943359375,-611.3761596679688,1084.583251953125C-624.0735473632812,1065.032958984375,-636.7909545898438,1045.502685546875,-649.5284423828125,1025.982421875C-650.009521484375,1025.23974609375,-649.9894409179688,1024.687744140625,-649.5585327148438,1023.955078125C-645.87060546875,1017.8330078125,-642.22265625,1011.680908203125,-638.5548095703125,1005.548828125C-637.69287109375,1004.1036376953125,-636.8911743164062,1004.0835571289062,-635.9892578125,1005.478515625C-629.0943603515625,1016.07666015625,-622.20947265625,1026.684814453125,-615.3146362304688,1037.282958984375C-608.3595581054688,1047.9915771484375,-601.3945922851562,1058.6900634765625,-594.4295043945312,1069.398681640625C-591.252685546875,1074.2862548828125,-588.0758056640625,1079.163818359375,-584.9290771484375,1084.071533203125C-584.6484375,1084.5130615234375,-584.5882568359375,1085.105224609375,-584.427978515625,1085.6270751953125C-584.9290771484375,1085.74755859375,-585.4301147460938,1085.96826171875,-585.93115234375,1085.978271484375C-589.7694702148438,1086.0084228515625,-593.6077880859375,1085.9984130859375,-597.4560546875,1085.9984130859375Z" style="fill:#03f8c5;fill-opacity:1">
          </path>
        </g>
      </g>
      <g id="shape-60f0f2e3-78f9-8089-8007-3d04cdfdb89a">
        <g class="fills" id="fills-60f0f2e3-78f9-8089-8007-3d04cdfdb89a">
          <path d="M-657.03466796875,973.4031372070312C-657.1448974609375,973.75439453125,-657.1949462890625,974.04541015625,-657.3253173828125,974.2963256835938C-660.2114868164062,979.6857299804688,-663.0977783203125,985.0751342773438,-665.9940185546875,990.4645385742188C-666.6553955078125,991.698974609375,-667.3168334960938,992.9434204101562,-668.018310546875,994.1578369140625C-668.8601684570312,995.6231079101562,-669.4814453125,995.6531982421875,-670.4035034179688,994.2380981445312C-673.3699340820312,989.7117919921875,-676.3262939453125,985.1754760742188,-679.2725830078125,980.6290893554688C-683.9526977539062,973.4131469726562,-688.61279296875,966.1971435546875,-693.2828369140625,958.97119140625C-698.2235717773438,951.3336791992188,-703.1842651367188,943.7162475585938,-708.0747680664062,936.0486450195312C-708.3854370117188,935.556884765625,-708.4956665039062,934.6636962890625,-708.2651977539062,934.1417846679688C-705.0682983398438,926.92578125,-701.811279296875,919.7299194335938,-698.5140991210938,912.5540771484375C-698.28369140625,912.05224609375,-697.7725830078125,911.5003051757812,-697.281494140625,911.3798828125C-697.0008544921875,911.3095703125,-696.4096069335938,911.9619140625,-696.1190185546875,912.403564453125C-690.8576049804688,920.5127563476562,-685.6062622070312,928.6419677734375,-680.3750610351562,936.771240234375C-672.7685546875,948.583740234375,-665.1822509765625,960.4163818359375,-657.5958862304688,972.2388916015625C-657.3553466796875,972.6102294921875,-657.1949462890625,973.0418090820312,-657.0146484375,973.4131469726562Z" style="fill:#03f8c5;fill-opacity:1">
          </path>
        </g>
      </g>
      <g id="shape-60f0f2e3-78f9-8089-8007-3d04cdfdb89b">
        <g class="fills" id="fills-60f0f2e3-78f9-8089-8007-3d04cdfdb89b">
          <path d="M-737.708740234375,1021.1349487304688C-738.5906982421875,1022.5098876953125,-739.3823852539062,1023.7041625976562,-740.1339721679688,1024.91845703125C-745.0145263671875,1032.6865234375,-749.89501953125,1040.4544677734375,-754.7655029296875,1048.232421875C-759.8765869140625,1056.391845703125,-764.987548828125,1064.561279296875,-770.0986328125,1072.7205810546875C-772.6040649414062,1076.7149658203125,-775.1094360351562,1080.6993408203125,-777.6348876953125,1084.68359375C-778.6771240234375,1086.32958984375,-779.3285522460938,1086.299560546875,-780.380859375,1084.6134033203125C-791.5048217773438,1066.899658203125,-802.6287841796875,1049.1859130859375,-813.7528076171875,1031.462158203125C-820.69775390625,1020.3922119140625,-827.6127319335938,1009.3123779296875,-834.5677490234375,998.2625732421875C-835.12890625,997.37939453125,-835.1589965820312,996.717041015625,-834.5677490234375,995.8037109375C-830.76953125,989.8924560546875,-827.04150390625,983.9310302734375,-823.29345703125,977.9896240234375C-822.331298828125,976.464111328125,-821.639892578125,976.4339599609375,-820.667724609375,977.8992919921875C-810.75634765625,992.8631591796875,-800.85498046875,1007.8270263671875,-790.9536743164062,1022.7908935546875C-787.1654663085938,1028.511474609375,-783.3873291015625,1034.2421875,-779.59912109375,1039.962646484375C-779.378662109375,1040.2938232421875,-779.1181030273438,1040.594970703125,-778.75732421875,1041.066650390625C-778.386474609375,1040.60498046875,-778.0758056640625,1040.2938232421875,-777.8453369140625,1039.9326171875C-771.11083984375,1029.6656494140625,-764.3862915039062,1019.3886108398438,-757.6517333984375,1009.1216430664062C-751.4884643554688,999.7178344726562,-745.335205078125,990.303955078125,-739.171875,980.8900146484375C-738.0093994140625,979.1136474609375,-737.4080810546875,979.1036376953125,-736.2455444335938,980.8599853515625C-727.41650390625,994.2080078125,-718.5874633789062,1007.5460205078125,-709.7584228515625,1020.89404296875C-705.1785888671875,1027.8291015625,-700.61865234375,1034.77392578125,-696.048828125,1041.718994140625C-695.7782592773438,1042.1204833984375,-695.4776000976562,1042.5018310546875,-695.03662109375,1043.114013671875C-672.6082763671875,1008.5496215820312,-650.3101806640625,974.1758422851562,-627.9118041992188,939.66162109375C-638.7752685546875,933.880859375,-649.4984130859375,928.1802978515625,-660.5021362304688,922.3292846679688C-659.760498046875,921.8575439453125,-659.3596801757812,921.5263671875,-658.898681640625,921.3156127929688C-649.4683227539062,916.9097900390625,-640.0379028320312,912.513916015625,-630.6075439453125,908.1181030273438C-618.2108764648438,902.3473510742188,-605.8141479492188,896.5966186523438,-593.4174194335938,890.8359375C-589.5189208984375,889.0294189453125,-585.640625,887.1927490234375,-581.7421875,885.376220703125C-580.2890625,884.6937866210938,-580.03857421875,884.8744506835938,-579.958251953125,886.4601440429688C-579.6476440429688,892.5621337890625,-579.296875,898.654052734375,-578.9962768554688,904.7559814453125C-578.7957763671875,908.800537109375,-578.675537109375,912.8450927734375,-578.465087890625,916.879638671875C-578.1744384765625,922.3995361328125,-577.82373046875,927.9193725585938,-577.5130615234375,933.4392700195312C-577.392822265625,935.7073974609375,-577.3327026367188,937.9755859375,-577.232421875,940.2437744140625C-577.06201171875,944.0775146484375,-576.8917236328125,947.911376953125,-576.6912841796875,951.7451171875C-576.4707641601562,955.91015625,-576.1902465820312,960.0650634765625,-576.009765625,964.2301025390625C-575.9295654296875,966.126953125,-576.3204956054688,966.3577880859375,-577.9840698242188,965.4544677734375C-585.670654296875,961.2694091796875,-593.3472290039062,957.05419921875,-601.0337524414062,952.84912109375C-602.777587890625,951.8956909179688,-604.5513916015625,951.0125122070312,-606.2451171875,949.9888305664062C-607.0968627929688,949.4769897460938,-607.52783203125,949.6375732421875,-608.0289306640625,950.430419921875C-610.5342407226562,954.3746337890625,-613.079833984375,958.2886962890625,-615.605224609375,962.222900390625C-618.9324340820312,967.4014892578125,-622.239501953125,972.6002197265625,-625.5567016601562,977.7788696289062C-633.2031860351562,989.7218627929688,-640.8497314453125,1001.65478515625,-648.4962158203125,1013.5977783203125C-652.935791015625,1020.522705078125,-657.3853759765625,1027.4476318359375,-661.81494140625,1034.37255859375C-669.5315551757812,1046.416015625,-677.2482299804688,1058.459228515625,-684.9649047851562,1070.502685546875C-688.00146484375,1075.2396240234375,-691.0280151367188,1079.9666748046875,-694.0845947265625,1084.6937255859375C-695.1368408203125,1086.319580078125,-695.7281494140625,1086.319580078125,-696.7603759765625,1084.6937255859375C-704.6072998046875,1072.48974609375,-712.4341430664062,1060.2657470703125,-720.2711181640625,1048.0517578125C-725.8131103515625,1039.420654296875,-731.3550415039062,1030.7996826171875,-736.89697265625,1022.1686401367188C-737.077392578125,1021.8976440429688,-737.287841796875,1021.646728515625,-737.6886596679688,1021.1349487304688Z" class-name="cls-1" style="fill:#03f8c5;fill-opacity:1">
          </path>
        </g>
      </g>
      <g id="shape-60f0f2e3-78f9-8089-8007-3d04cdfdb89c">
        <g class="fills" id="fills-60f0f2e3-78f9-8089-8007-3d04cdfdb89c">
          <path d="M-597.446044921875,1085.978271484375C-601.2041625976562,1085.978271484375,-604.9622192382812,1085.9482421875,-608.7203979492188,1085.9984130859375C-609.9129638671875,1086.0084228515625,-610.7047119140625,1085.616943359375,-611.3761596679688,1084.583251953125C-624.0735473632812,1065.032958984375,-636.7909545898438,1045.502685546875,-649.5284423828125,1025.982421875C-650.009521484375,1025.23974609375,-649.9894409179688,1024.687744140625,-649.5585327148438,1023.955078125C-645.87060546875,1017.8330078125,-642.22265625,1011.680908203125,-638.5548095703125,1005.548828125C-637.69287109375,1004.1036376953125,-636.8911743164062,1004.0835571289062,-635.9892578125,1005.478515625C-629.0943603515625,1016.07666015625,-622.20947265625,1026.684814453125,-615.3146362304688,1037.282958984375C-608.3595581054688,1047.9915771484375,-601.3945922851562,1058.6900634765625,-594.4295043945312,1069.398681640625C-591.252685546875,1074.2862548828125,-588.0758056640625,1079.163818359375,-584.9290771484375,1084.071533203125C-584.6484375,1084.5130615234375,-584.5882568359375,1085.105224609375,-584.427978515625,1085.6270751953125C-584.9290771484375,1085.74755859375,-585.4301147460938,1085.96826171875,-585.93115234375,1085.978271484375C-589.7694702148438,1086.0084228515625,-593.6077880859375,1085.9984130859375,-597.4560546875,1085.9984130859375Z" class-name="cls-4" style="fill:#03f8c5;fill-opacity:1">
          </path>
        </g>
      </g>
      <g id="shape-60f0f2e3-78f9-8089-8007-3d04cdfdb89d">
        <g class="fills" id="fills-60f0f2e3-78f9-8089-8007-3d04cdfdb89d">
          <path d="M-657.03466796875,973.4031372070312C-657.1448974609375,973.75439453125,-657.1949462890625,974.04541015625,-657.3253173828125,974.2963256835938C-660.2114868164062,979.6857299804688,-663.0977783203125,985.0751342773438,-665.9940185546875,990.4645385742188C-666.6553955078125,991.698974609375,-667.3168334960938,992.9434204101562,-668.018310546875,994.1578369140625C-668.8601684570312,995.6231079101562,-669.4814453125,995.6531982421875,-670.4035034179688,994.2380981445312C-673.3699340820312,989.7117919921875,-676.3262939453125,985.1754760742188,-679.2725830078125,980.6290893554688C-683.9526977539062,973.4131469726562,-688.61279296875,966.1971435546875,-693.2828369140625,958.97119140625C-698.2235717773438,951.3336791992188,-703.1842651367188,943.7162475585938,-708.0747680664062,936.0486450195312C-708.3854370117188,935.556884765625,-708.4956665039062,934.6636962890625,-708.2651977539062,934.1417846679688C-705.0682983398438,926.92578125,-701.811279296875,919.7299194335938,-698.5140991210938,912.5540771484375C-698.28369140625,912.05224609375,-697.7725830078125,911.5003051757812,-697.281494140625,911.3798828125C-697.0008544921875,911.3095703125,-696.4096069335938,911.9619140625,-696.1190185546875,912.403564453125C-690.8576049804688,920.5127563476562,-685.6062622070312,928.6419677734375,-680.3750610351562,936.771240234375C-672.7685546875,948.583740234375,-665.1822509765625,960.4163818359375,-657.5958862304688,972.2388916015625C-657.3553466796875,972.6102294921875,-657.1949462890625,973.0418090820312,-657.0146484375,973.4131469726562Z" class-name="cls-3" style="fill:#03f8c5;fill-opacity:1">
          </path>
        </g>
      </g>
    </g>
  </g>
</svg>